<?xml version="1.0" encoding="UTF-8"?>
<svg version="1.1" xmlns="http://www.w3.org/2000/svg" width="465" height="465">
<path d="M0,0 L35,0 L56,3 L73,8 L96,17 L118,30 L131,40 L141,49 L156,64 L166,77 L177,95 L183,107 L189,123 L215,126 L232,129 L237,131 L238,136 L241,144 L243,156 L243,174 L240,196 L235,221 L232,233 L231,234 L217,233 L195,229 L191,229 L185,247 L177,263 L168,279 L158,292 L147,305 L142,310 L138,312 L138,314 L121,327 L108,335 L96,342 L69,352 L48,357 L31,359 L5,359 L-13,357 L-31,353 L-56,344 L-75,334 L-86,327 L-100,316 L-110,307 L-117,299 L-121,301 L-128,309 L-135,315 L-139,320 L-145,321 L-147,320 L-147,318 L-153,317 L-167,310 L-178,302 L-186,294 L-194,281 L-198,273 L-201,262 L-202,245 L-195,237 L-172,214 L-163,207 L-162,205 L-162,165 L-160,148 L-156,131 L-150,113 L-145,101 L-133,80 L-123,67 L-117,59 L-115,59 L-113,55 L-108,50 L-98,41 L-85,31 L-63,18 L-54,14 L-38,8 L-21,3 Z " fill="#D3CEE4" transform="translate(215,53)"/>
<path d="M0,0 L18,0 L34,5 L53,15 L60,14 L72,10 L77,9 L86,9 L93,10 L102,13 L113,16 L129,24 L140,30 L151,38 L162,42 L169,41 L176,39 L206,39 L223,42 L228,44 L229,49 L232,57 L234,69 L234,87 L231,109 L226,134 L223,146 L222,147 L208,146 L186,142 L186,140 L180,140 L164,136 L154,132 L149,126 L134,122 L124,123 L106,130 L94,132 L69,132 L55,129 L44,123 L39,117 L37,113 L37,100 L33,96 L33,94 L31,94 L30,91 L30,81 L31,79 L18,79 L8,71 L-17,58 L-32,53 L-49,50 L-71,49 L-71,28 L-67,25 L-70,23 L-70,20 L-64,19 L-69,18 L-68,15 L-61,14 L-68,13 L-68,9 L-54,7 L-7,1 Z " fill="#3D3E48" transform="translate(224,140)"/>
<path d="M0,0 L18,0 L28,3 L37,7 L44,10 L57,18 L60,21 L61,24 L61,32 L60,35 L62,35 L64,24 L69,18 L71,17 L80,17 L85,21 L86,26 L88,26 L90,21 L97,15 L106,15 L112,19 L113,21 L113,30 L115,29 L124,29 L129,32 L132,38 L132,44 L127,51 L115,60 L104,67 L83,77 L60,85 L52,86 L36,86 L23,81 L13,76 L8,77 L6,78 L5,90 L0,100 L-3,101 L-3,103 L-5,103 L-7,107 L-12,112 L-21,120 L-24,126 L-29,131 L-39,141 L-44,146 L-47,148 L-53,147 L-53,145 L-59,144 L-73,137 L-84,129 L-92,121 L-100,108 L-104,100 L-107,89 L-108,72 L-101,64 L-78,41 L-67,33 L-62,30 L-54,26 L-39,25 L-28,14 L-15,5 Z " fill="#C7B9DA" transform="translate(121,226)"/>
<path d="M0,0 L19,0 L40,7 L63,18 L74,26 L89,33 L83,41 L77,51 L73,62 L72,67 L72,91 L74,104 L66,103 L63,102 L52,102 L40,107 L26,111 L-6,111 L-17,108 L-23,105 L-29,98 L-29,89 L-24,83 L-15,79 L8,76 L6,74 L0,73 L-16,75 L-26,79 L-28,81 L-33,80 L-37,74 L-37,67 L-32,62 L-19,58 L-15,57 L0,56 L0,54 L-21,54 L-33,57 L-37,60 L-49,60 L-49,56 L-37,55 L-48,54 L-48,51 L-20,50 L-47,48 L-47,46 L-23,46 L7,47 L13,56 L13,58 L15,58 L16,62 L15,65 L11,64 L9,63 L10,66 L16,66 L15,76 L10,77 L11,78 L10,93 L0,97 L-13,98 L-13,103 L5,100 L11,99 L13,105 L16,104 L15,95 L15,85 L21,68 L21,61 L16,53 L12,48 L10,42 L10,31 L14,23 L16,21 L17,17 L12,19 L8,24 L7,27 L-9,26 L-18,30 L-28,30 L-34,27 L-37,23 L-36,16 L-31,13 L-21,10 L-8,3 Z " fill="#F9DAD9" transform="translate(296,155)"/>
<path d="M0,0 L16,0 L29,4 L48,14 L54,18 L55,20 L55,26 L51,31 L49,32 L40,31 L19,26 L17,25 L5,24 L6,28 L24,31 L41,36 L51,36 L54,34 L59,35 L67,38 L82,38 L100,33 L106,34 L109,37 L109,43 L106,46 L88,54 L84,56 L36,56 L35,60 L51,60 L66,61 L82,61 L100,53 L107,50 L111,48 L113,43 L112,31 L115,29 L122,29 L125,31 L125,39 L115,48 L104,55 L79,68 L60,74 L55,75 L34,75 L22,70 L14,66 L-6,60 L-10,60 L-9,64 L2,67 L0,71 L-10,81 L-15,84 L-32,84 L-41,80 L-47,75 L-49,70 L-51,70 L-53,64 L-53,50 L-49,40 L-41,29 L-32,19 L-29,16 L-27,16 L-27,14 L-17,7 L-7,2 Z " fill="#F8D9D7" transform="translate(122,231)"/>
<path d="M0,0 L16,1 L46,6 L51,6 L55,14 L57,26 L57,44 L54,66 L49,91 L46,103 L45,103 L45,98 L27,96 L-8,89 L-19,85 L-24,80 L-27,70 L-29,60 L-29,42 L-24,25 L-19,17 L-10,6 L-3,1 Z " fill="#DDE5F4" transform="translate(401,183)"/>
<path d="M0,0 L18,0 L28,3 L37,7 L44,10 L57,18 L60,21 L61,24 L61,32 L60,35 L62,35 L64,24 L69,18 L71,17 L80,17 L85,21 L86,26 L88,26 L90,21 L97,15 L106,15 L112,19 L113,21 L113,30 L115,29 L124,29 L129,32 L132,38 L132,44 L127,51 L115,60 L104,67 L83,77 L60,85 L52,86 L36,86 L23,81 L13,76 L8,77 L6,78 L5,90 L0,100 L-3,101 L-3,103 L-5,103 L-7,107 L-12,112 L-21,120 L-24,126 L-29,131 L-39,141 L-44,146 L-47,148 L-53,147 L-52,143 L-3,94 L0,85 L-9,92 L-17,95 L-30,95 L-40,91 L-43,89 L-43,87 L-47,86 L-54,78 L-58,68 L-58,56 L-54,46 L-48,35 L-45,31 L-54,33 L-60,36 L-74,48 L-84,58 L-92,65 L-102,75 L-103,77 L-108,77 L-107,70 L-78,41 L-67,33 L-62,30 L-54,26 L-39,25 L-28,14 L-15,5 Z M1,5 L-11,9 L-22,16 L-26,19 L-26,21 L-30,23 L-38,31 L-46,42 L-50,49 L-52,55 L-52,69 L-50,75 L-48,75 L-46,80 L-37,87 L-31,89 L-14,89 L-6,83 L3,74 L3,72 L-8,69 L-9,65 L-2,66 L15,71 L29,78 L35,80 L56,80 L73,75 L84,71 L109,58 L122,48 L126,44 L126,36 L123,34 L116,34 L113,36 L114,48 L112,53 L105,57 L92,62 L83,66 L67,66 L52,65 L36,65 L37,61 L85,61 L100,54 L108,50 L110,48 L110,42 L105,38 L98,39 L83,43 L68,43 L60,40 L55,39 L52,41 L42,41 L20,35 L7,33 L6,29 L18,30 L28,33 L44,37 L50,37 L55,33 L56,31 L56,25 L51,20 L36,12 L26,8 L17,5 Z " fill="#3F3C4F" transform="translate(121,226)"/>
<path d="M0,0 L24,0 L54,1 L60,10 L60,12 L62,12 L63,16 L62,19 L58,18 L56,17 L57,20 L63,20 L62,30 L57,31 L58,32 L57,47 L47,51 L34,52 L34,57 L52,54 L58,53 L60,59 L63,58 L62,49 L62,39 L64,32 L65,36 L64,50 L74,48 L80,45 L88,43 L98,42 L109,42 L117,43 L117,26 L118,26 L119,45 L121,58 L113,57 L110,56 L99,56 L87,61 L73,65 L41,65 L30,62 L24,59 L18,52 L18,43 L23,37 L32,33 L55,30 L53,28 L47,27 L31,29 L21,33 L19,35 L14,34 L10,28 L10,21 L15,16 L28,12 L32,11 L47,10 L47,8 L26,8 L14,11 L10,14 L-2,14 L-2,10 L10,9 L-1,8 L-1,5 L27,4 L0,2 Z " fill="#F0C4C0" transform="translate(249,201)"/>
<path d="M0,0 L9,0 L16,1 L25,4 L36,7 L52,15 L63,21 L74,29 L85,33 L92,32 L99,30 L129,30 L146,33 L151,35 L152,40 L146,41 L108,35 L100,35 L91,40 L80,53 L75,65 L72,76 L72,94 L75,109 L78,115 L83,119 L92,122 L127,129 L145,132 L145,138 L131,137 L109,133 L109,131 L103,131 L87,127 L77,123 L72,117 L57,113 L47,114 L29,121 L17,123 L-8,123 L-22,120 L-33,114 L-38,108 L-40,104 L-40,91 L-44,87 L-44,85 L-46,85 L-47,82 L-47,72 L-46,70 L-59,70 L-60,68 L-52,68 L-43,66 L-38,62 L-26,59 L-8,59 L-5,60 L-4,63 L-20,64 L-35,68 L-39,70 L-41,73 L-41,80 L-38,85 L-33,86 L-27,82 L-21,80 L-1,78 L3,80 L3,82 L-4,84 L-20,86 L-29,90 L-33,95 L-33,104 L-27,111 L-20,114 L-11,116 L21,116 L35,112 L47,107 L58,107 L69,110 L66,97 L66,73 L70,60 L75,50 L82,41 L82,39 L66,31 L56,24 L35,14 L20,9 L14,7 L-2,6 L2,4 L4,2 Z " fill="#3E3C4F" transform="translate(301,149)"/>
<path d="M0,0 L16,0 L41,9 L49,14 L48,17 L40,20 L33,23 L30,27 L30,35 L34,41 L40,45 L55,45 L64,41 L71,42 L76,43 L76,54 L47,54 L24,53 L15,42 L2,30 L-12,22 L-12,20 L-17,19 L-31,13 L-48,8 L-48,6 L-5,1 Z " fill="#C1E0BD" transform="translate(225,144)"/>
<path d="M0,0 L10,0 L12,1 L13,6 L23,6 L36,10 L48,15 L57,20 L55,21 L52,20 L52,22 L61,25 L62,27 L60,28 L62,30 L56,29 L51,28 L56,31 L77,41 L89,49 L90,52 L85,50 L71,42 L59,36 L62,39 L79,48 L89,55 L89,58 L85,57 L70,48 L68,48 L79,55 L87,61 L87,64 L82,62 L75,57 L72,56 L74,60 L69,58 L48,48 L36,44 L19,41 L-3,40 L-3,19 L1,16 L-2,14 L-2,11 L4,10 L-1,9 L0,6 L7,5 L0,4 Z " fill="#3E5A3D" transform="translate(156,149)"/>
<path d="M0,0 L7,0 L10,2 L10,10 L0,19 L-11,26 L-36,39 L-55,45 L-60,46 L-81,46 L-93,41 L-101,37 L-121,31 L-125,31 L-124,35 L-113,38 L-115,42 L-125,52 L-130,55 L-147,55 L-154,52 L-153,50 L-151,50 L-151,48 L-149,48 L-149,46 L-142,40 L-137,35 L-134,32 L-131,27 L-125,23 L-110,23 L-100,27 L-88,27 L-80,23 L-71,20 L-39,20 L-30,18 L-16,13 L-14,13 L-14,11 L-7,10 L-6,8 L-6,14 L-9,17 L-27,25 L-31,27 L-79,27 L-80,31 L-64,31 L-49,32 L-33,32 L-15,24 L-8,21 L-4,19 L-2,14 L-3,2 Z " fill="#F1C5C2" transform="translate(237,260)"/>
<path d="M0,0 L9,0 L15,4 L16,6 L16,15 L18,14 L27,14 L32,17 L35,23 L35,29 L30,36 L18,45 L12,48 L13,43 L16,41 L17,38 L26,31 L28,29 L29,21 L26,20 L19,20 L17,21 L18,33 L15,39 L8,43 L-5,48 L-14,52 L-30,52 L-61,50 L-60,45 L-12,45 L3,38 L11,34 L12,33 L12,27 L8,24 L1,25 L-14,29 L-29,29 L-37,26 L-41,23 L-41,21 L-39,21 L-37,9 L-36,9 L-36,17 L-37,20 L-35,20 L-33,9 L-28,3 L-26,2 L-17,2 L-12,6 L-11,11 L-9,11 L-7,6 Z " fill="#3D3B4E" transform="translate(218,241)"/>
<path d="M0,0 L2,0 L1,7 L-6,15 L-51,60 L-57,59 L-71,52 L-74,50 L-74,48 L-71,48 L-69,44 L-62,37 L-59,34 L-53,26 L-50,21 L-44,6 L-43,2 L-41,2 L-41,4 L-36,6 L-28,9 L-15,9 L-5,5 Z " fill="#A79CCA" transform="translate(119,311)"/>
<path d="M0,0 L5,0 L13,3 L22,5 L26,7 L35,9 L39,11 L55,15 L62,17 L78,17 L78,24 L76,31 L74,41 L73,41 L73,36 L55,34 L20,27 L9,23 L4,18 L1,8 Z " fill="#BBCCE8" transform="translate(373,245)"/>
<path d="M0,0 L9,0 L5,2 L-18,5 L-36,7 L-43,7 L-43,9 L-35,10 L-19,16 L-7,21 L-7,23 L-1,25 L9,32 L24,46 L29,53 L74,55 L81,56 L81,59 L53,59 L29,58 L29,60 L42,60 L56,61 L57,63 L28,63 L28,66 L39,66 L40,68 L27,68 L27,72 L38,72 L36,74 L23,75 L14,70 L9,65 L8,62 L12,63 L23,70 L21,66 L6,56 L3,53 L7,54 L21,62 L25,64 L24,61 L8,51 L-5,44 L-5,42 L1,44 L16,52 L26,58 L21,53 L5,44 L-8,38 L-13,35 L-14,33 L-8,34 L-5,34 L-3,32 L-12,28 L-12,26 L-8,26 L-23,19 L-41,13 L-51,12 L-51,10 L-53,9 L-52,7 L-60,6 L-60,5 L-27,1 Z " fill="#31532E" transform="translate(220,143)"/>
<path d="M0,0 L24,0 L54,1 L60,10 L60,12 L62,12 L63,16 L62,19 L58,18 L56,17 L57,20 L63,20 L62,30 L57,31 L57,34 L48,32 L48,31 L55,30 L53,28 L47,27 L31,29 L21,33 L19,35 L14,34 L10,28 L10,21 L15,16 L28,12 L32,11 L47,10 L47,8 L26,8 L14,11 L10,14 L-2,14 L-2,10 L10,9 L-1,8 L-1,5 L27,4 L0,2 Z " fill="#6A8B61" transform="translate(249,201)"/>
<path d="M0,0 L11,0 L28,2 L55,9 L76,19 L88,27 L89,30 L84,28 L70,20 L58,14 L61,17 L78,26 L88,33 L88,36 L84,35 L69,26 L67,26 L78,33 L86,39 L86,42 L81,40 L66,30 L52,23 L37,18 L24,15 L1,13 L1,11 L21,11 L21,9 L9,9 L0,8 L0,5 L19,5 L28,7 L28,5 L18,4 L0,3 Z " fill="#8AB776" transform="translate(157,171)"/>
<path d="M0,0 L16,0 L41,9 L49,14 L48,17 L45,18 L45,16 L40,14 L33,10 L20,5 L4,4 L-21,7 L-22,11 L-16,13 L-10,16 L1,22 L5,26 L16,34 L19,39 L24,43 L31,46 L32,49 L74,49 L74,43 L76,43 L76,54 L47,54 L24,53 L15,42 L2,30 L-12,22 L-12,20 L-17,19 L-31,13 L-48,8 L-48,6 L-5,1 Z " fill="#90BA81" transform="translate(225,144)"/>
<path d="M0,0 L16,1 L29,6 L41,13 L41,15 L35,14 L28,12 L15,12 L5,14 L4,19 L9,21 L4,26 L-3,21 L-3,19 L-7,18 L-18,12 L-26,8 L-26,5 L-29,4 L-20,2 Z " fill="#C2E2BB" transform="translate(229,147)"/>
<path d="M0,0 L21,0 L23,4 L23,11 L19,15 L3,17 L-7,21 L-9,23 L-14,22 L-18,16 L-18,9 L-13,4 Z " fill="#F5D7D5" transform="translate(277,213)"/>
<path d="M0,0 L10,0 L12,1 L13,6 L23,6 L36,10 L48,15 L57,20 L55,21 L52,20 L52,22 L61,25 L62,27 L60,28 L62,30 L56,29 L51,28 L52,30 L45,29 L48,26 L34,22 L15,20 L13,18 L20,15 L8,13 L8,11 L4,10 L-1,9 L0,6 L7,5 L0,4 Z " fill="#43653D" transform="translate(156,149)"/>
<path d="M0,0 L7,0 L5,4 L2,9 L0,9 L-5,14 L-14,20 L-22,27 L-29,35 L-34,40 L-41,46 L-42,48 L-44,48 L-44,50 L-47,50 L-47,52 L-49,52 L-50,56 L-54,56 L-55,58 L-55,46 L-51,46 L-49,42 L-34,27 L-26,20 L-18,12 L-7,3 Z " fill="#D2CBE1" transform="translate(69,257)"/>
<path d="M0,0 L2,0 L3,9 L0,15 L-7,19 L-20,24 L-29,28 L-45,28 L-76,26 L-75,21 L-27,21 L-12,14 L-4,10 Z " fill="#443944" transform="translate(233,265)"/>
<path d="M0,0 L9,0 L11,2 L6,2 L9,7 L11,9 L11,18 L8,22 L0,22 L1,26 L-7,26 L-15,22 L-15,19 L-13,19 L-11,7 L-10,7 L-10,15 L-11,18 L-9,18 L-7,7 L-2,1 Z " fill="#353342" transform="translate(192,243)"/>
<path d="M0,0 L13,0 L17,2 L16,9 L-1,13 L-16,13 L-21,12 L-15,3 L-9,1 Z " fill="#F1D4D5" transform="translate(290,233)"/>
<path d="M0,0 L3,2 L-10,13 L-20,23 L-28,30 L-38,40 L-39,42 L-44,42 L-43,35 L-14,6 L-8,1 L-6,2 L-7,4 L-1,3 Z M-10,5 Z " fill="#3C394B" transform="translate(57,261)"/>
<path d="M0,0 L3,3 L3,9 L-1,14 L-3,15 L-12,14 L-33,9 L-35,8 L-47,7 L-48,11 L-48,5 L-43,4 L-39,2 L-26,2 L-12,5 L-5,5 Z " fill="#F2C6C2" transform="translate(174,248)"/>
<path d="M0,0 L2,1 L0,6 L-8,17 L-9,19 L-7,18 L1,18 L3,18 L4,16 L9,16 L8,20 L-13,26 L-28,26 L-24,25 L-25,21 L-17,21 L-15,17 L-15,8 L-19,4 L-19,1 L-14,1 L-10,5 L-10,8 L-8,8 L-7,5 L-4,4 Z " fill="#3A3748" transform="translate(217,244)"/>
<path d="M0,0 L13,0 L25,4 L21,6 L14,9 L10,13 L-4,12 L-11,9 L-12,4 L-10,2 Z " fill="#8FBE7B" transform="translate(244,158)"/>
<path d="M0,0 L2,1 L-1,4 L-1,7 L-2,9 L11,8 L12,7 L24,5 L32,2 L35,2 L36,0 L36,7 L32,11 L16,13 L6,17 L4,19 L-1,18 L-5,12 L-5,5 Z " fill="#E5BDBC" transform="translate(264,217)"/>
<path d="M0,0 L12,0 L26,4 L42,10 L50,14 L48,16 L50,18 L44,17 L39,16 L40,18 L33,17 L36,14 L22,10 L3,8 L1,6 L8,3 L0,1 Z " fill="#3A5E33" transform="translate(168,161)"/>
<path d="M0,0 L4,1 L-1,7 L-2,10 L-18,9 L-27,13 L-37,13 L-40,11 L-37,11 L-36,8 L-26,4 L-16,1 L-2,1 L-1,2 Z " fill="#EFC7C2" transform="translate(305,172)"/>
<path d="M0,0 L18,0 L34,5 L53,15 L60,15 L59,17 L51,17 L52,20 L49,20 L49,18 L39,13 L17,5 L-4,4 L-21,4 L-21,3 Z " fill="#456145" transform="translate(224,140)"/>
<path d="M0,0 L28,5 L46,8 L46,14 L32,13 L10,9 L10,7 L4,7 L4,3 L0,1 Z " fill="#57596C" transform="translate(400,273)"/>
<path d="M0,0 L8,0 L8,2 L15,2 L23,4 L23,5 L14,7 L15,8 L34,10 L48,14 L48,17 L41,17 L23,13 L0,11 L1,8 L3,8 L3,6 L10,5 L10,3 L2,3 L-1,1 Z " fill="#2C4A2F" transform="translate(156,160)"/>
<path d="M0,0 L18,0 L23,4 L23,6 L25,6 L25,10 L31,11 L31,13 L27,12 L25,11 L26,14 L32,14 L31,24 L26,25 L26,28 L17,26 L17,25 L24,24 L22,22 L18,19 L19,17 L19,10 L18,7 L1,6 L1,5 L16,4 L16,2 L0,1 Z " fill="#312F3D" transform="translate(280,207)"/>
<path d="M0,0 L1,3 L2,8 L-5,16 L-12,22 L-16,27 L-22,28 L-24,27 L-23,23 Z " fill="#3A3651" transform="translate(92,346)"/>
<path d="M0,0 L1,0 L2,7 L4,6 L5,1 L6,1 L8,11 L13,16 L20,19 L29,21 L30,25 L33,26 L57,27 L57,28 L32,28 L18,25 L7,19 L2,13 L0,9 Z " fill="#433E4F" transform="translate(261,244)"/>
<path d="M0,0 L10,3 L22,9 L32,16 L34,20 L30,18 L31,21 L29,22 L25,18 L10,10 L0,6 L-9,3 L-23,2 L-23,1 L-5,1 L-3,3 L0,4 Z " fill="#464454" transform="translate(147,229)"/>
<path d="M0,0 L25,0 L46,1 L46,2 L36,3 L36,5 L46,6 L46,7 L30,7 L-1,5 Z " fill="#65535F" transform="translate(158,286)"/>
<path d="M0,0 L7,4 L22,4 L31,0 L38,1 L41,2 L41,8 L-1,8 L-3,4 L-2,2 L0,2 Z " fill="#C1E1BB" transform="translate(258,185)"/>
<path d="M0,0 L18,0 L21,1 L22,4 L6,5 L-9,9 L-13,11 L-16,15 L-19,14 L-19,10 L-26,10 L-26,9 L-17,7 L-12,3 Z " fill="#3A4144" transform="translate(275,208)"/>
<path d="M0,0 L0,3 L-3,4 L-5,10 L-15,16 L-35,25 L-40,26 L-40,24 L-42,22 L-33,18 L-13,8 Z " fill="#403A4D" transform="translate(234,280)"/>
<path d="M0,0 L7,0 L10,3 L10,9 L7,13 L-2,15 L-11,17 L-9,12 Z " fill="#EBD3D5" transform="translate(219,246)"/>
<path d="M0,0 L5,0 L9,4 L9,13 L6,17 L-3,17 L-5,16 L-4,4 Z " fill="#EFD9D7" transform="translate(194,248)"/>
<path d="M0,0 L9,0 L5,2 L-18,5 L-36,7 L-43,7 L-43,9 L-48,8 L-48,6 L-54,7 L-60,6 L-60,5 L-27,1 Z " fill="#3A523A" transform="translate(220,143)"/>
<path d="M0,0 L5,1 L5,13 L1,12 L1,8 L-8,15 L-12,17 L-28,17 L-31,15 L-30,13 L-15,13 L-11,11 L-6,6 Z " fill="#393448" transform="translate(120,303)"/>
<path d="M0,0 L1,4 L2,7 L-4,16 L-9,31 L-10,31 L-11,24 L-12,28 L-12,30 L-14,30 L-14,61 L-15,61 L-16,56 L-16,32 L-12,19 L-7,9 Z " fill="#4A444F" transform="translate(383,190)"/>
<path d="M0,0 L1,0 L1,12 L6,11 L7,20 L3,21 L1,16 L-9,18 L-15,19 L-23,19 L-23,14 L-6,11 L0,9 Z " fill="#403644" transform="translate(306,239)"/>
<path d="M0,0 L3,2 L-10,13 L-19,22 L-22,18 L-16,15 L-19,14 L-24,19 L-26,18 L-14,6 L-8,1 L-6,2 L-7,4 L-1,3 Z M-10,5 Z " fill="#454256" transform="translate(57,261)"/>
<path d="M0,0 L4,2 L3,13 L2,17 L-4,21 L-14,21 L-18,19 L-19,16 L-18,15 L-6,15 L-1,10 Z " fill="#423A46" transform="translate(177,247)"/>
<path d="M0,0 L2,1 L-2,4 L-4,8 L-16,12 L-24,13 L-40,13 L-46,11 L-42,10 L-36,11 L-36,9 L-33,10 L-35,10 L-35,12 L-25,10 L-16,7 L-13,4 Z " fill="#4C4B60" transform="translate(197,299)"/>
<path d="M0,0 L7,0 L10,2 L10,10 L5,15 L1,13 L-1,7 L-3,5 L-2,1 Z " fill="#F1CACB" transform="translate(237,260)"/>
<path d="M0,0 L2,2 L1,40 L-2,39 L-3,32 L-3,12 L-2,7 L0,7 L-1,2 Z " fill="#313345" transform="translate(371,213)"/>
<path d="M0,0 L15,1 L16,5 L18,6 L20,14 L24,18 L27,20 L24,20 L24,25 L21,27 L19,22 L16,19 L16,17 L14,17 L13,14 L13,4 L14,2 L1,2 Z " fill="#494959" transform="translate(241,217)"/>
<path d="M0,0 L2,0 L2,4 L-6,9 L-8,9 L-9,11 L-18,12 L-21,12 L-22,14 L-27,14 L-26,20 L-22,21 L-21,24 L-25,25 L-29,20 L-28,13 L-23,10 L-13,7 Z " fill="#E9DADE" transform="translate(288,158)"/>
<path d="M0,0 L9,0 L21,2 L21,8 L7,7 L7,5 L-2,4 L-2,1 Z " fill="#313448" transform="translate(425,279)"/>
<path d="M0,0 L1,0 L1,7 L-1,10 L-22,12 L-23,7 L-11,5 L-3,2 L0,2 Z " fill="#F0C8C4" transform="translate(299,217)"/>
<path d="M0,0 L4,1 L4,3 L10,4 L9,7 L9,5 L0,7 L-6,10 L-10,10 L-13,13 L-19,14 L-15,8 L-9,5 L-5,2 Z M-20,14 Z " fill="#414053" transform="translate(67,252)"/>
<path d="M0,0 L9,0 L23,3 L31,6 L30,8 L23,8 L5,4 L-6,3 L-6,2 L0,2 Z " fill="#30552A" transform="translate(174,169)"/>
<path d="M0,0 L3,2 L4,7 L6,10 L-7,19 L-26,29 L-28,25 L-13,18 L-6,15 L-2,13 L0,8 Z " fill="#C3ACAC" transform="translate(235,266)"/>
<path d="M0,0 L1,0 L1,6 L-2,9 L-20,17 L-23,16 L-20,14 L-18,14 L-17,10 L-12,7 L-7,5 L-7,3 L0,2 Z " fill="#EDC7C4" transform="translate(230,268)"/>
<path d="M0,0 L2,1 L2,10 L6,9 L7,6 L13,6 L12,16 L7,17 L7,20 L-2,18 L-2,17 L5,16 L3,14 L-1,11 L0,9 Z M1,10 Z " fill="#5C5360" transform="translate(299,215)"/>
<path d="M0,0 L11,1 L22,3 L27,5 L28,10 L22,11 L11,9 L15,7 L15,4 L2,2 Z " fill="#686977" transform="translate(425,179)"/>
<path d="M0,0 L11,0 L16,2 L16,3 L8,4 L4,3 L1,4 L0,7 L-7,9 L-14,8 L-18,7 L-2,1 Z " fill="#4C424E" transform="translate(348,256)"/>
<path d="M0,0 L1,3 L2,8 L-5,16 L-11,21 L-13,16 L-10,16 L-8,17 L-9,12 L-8,8 Z M-6,8 Z M-7,9 Z " fill="#514E63" transform="translate(92,346)"/>
<path d="M0,0 L16,0 L33,2 L29,4 L0,4 Z " fill="#352E42" transform="translate(157,287)"/>
<path d="M0,0 L0,3 L-5,8 L-4,9 L-2,12 L-9,19 L-10,21 L-15,21 L-14,14 Z " fill="#494757" transform="translate(28,282)"/>
<path d="M0,0 L4,2 L12,3 L12,5 L5,6 L5,8 L3,8 L3,14 L1,14 L0,28 L19,28 L19,29 L-1,29 L-1,8 L3,5 L0,3 Z " fill="#4E5A56" transform="translate(154,160)"/>
<path d="M0,0 L9,0 L16,1 L22,3 L18,7 L20,8 L14,7 L-2,6 L2,4 L4,2 Z " fill="#4C495C" transform="translate(301,149)"/>
<path d="M0,0 L8,0 L19,3 L31,8 L40,13 L38,14 L22,8 L9,4 L2,2 Z " fill="#7B9F75" transform="translate(173,156)"/>
<path d="M0,0 L2,1 L1,5 L3,6 L-6,12 L-9,13 L-9,15 L-12,15 L-12,13 L-14,11 L-3,2 Z " fill="#303242" transform="translate(104,232)"/>
<path d="M0,0 L12,0 L26,4 L42,10 L46,13 L41,12 L30,8 L13,4 L0,1 Z " fill="#759A6F" transform="translate(168,161)"/>
<path d="M0,0 L20,0 L30,2 L30,4 L2,2 L2,5 L11,5 L17,6 L17,7 L1,7 L0,6 Z M-1,6 Z " fill="#365A2E" transform="translate(155,174)"/>
<path d="M0,0 L18,0 L22,2 L9,1 L9,3 L15,3 L15,4 L-21,4 L-21,3 Z " fill="#55675C" transform="translate(224,140)"/>
<path d="M0,0 L10,0 L12,1 L13,6 L23,6 L19,9 L11,8 L11,6 L8,7 L0,7 L0,6 L7,5 L0,4 Z " fill="#2F4235" transform="translate(156,149)"/>
<path d="M0,0 L14,0 L17,1 L18,4 L-6,5 L-3,1 Z " fill="#30333C" transform="translate(279,208)"/>
<path d="M0,0 L9,0 L11,2 L6,2 L6,5 L-1,7 L-3,21 L-4,21 L-4,7 L-6,6 L-2,1 Z " fill="#494759" transform="translate(192,243)"/>
<path d="M0,0 L1,2 L5,2 L2,13 L1,13 L0,6 L-1,10 L-1,12 L-3,12 L-3,43 L-4,43 L-5,38 L-5,14 L-1,1 Z " fill="#5C505F" transform="translate(372,208)"/>
<path d="M0,0 L11,0 L28,2 L32,4 L29,4 L28,7 L28,5 L18,4 L0,3 Z " fill="#80A576" transform="translate(157,171)"/>
<path d="M0,0 L12,0 L20,2 L35,7 L31,8 L20,5 L1,3 L-1,1 Z " fill="#759970" transform="translate(170,166)"/>
<path d="M0,0 L1,4 L-4,8 L-7,13 L-11,17 L-15,24 L-19,25 L-18,21 L-9,9 L-7,9 L-5,5 Z " fill="#CCC8D7" transform="translate(107,103)"/>
<path d="M0,0 L7,1 L13,5 L13,8 L15,9 L15,11 L10,10 L1,5 Z " fill="#424051" transform="translate(352,166)"/>
<path d="M0,0 L7,4 L13,6 L30,6 L33,6 L28,9 L19,9 L13,8 L13,10 L15,11 L27,12 L27,13 L14,13 L8,11 L11,9 L10,6 L5,7 L5,4 L2,4 L2,2 L0,2 Z " fill="#564C5E" transform="translate(77,308)"/>
<path d="M0,0 L6,0 L3,5 L-9,10 L-11,10 L-11,8 L-13,6 L-4,2 Z " fill="#3A3548" transform="translate(205,296)"/>
<path d="M0,0 L7,1 L10,2 L10,7 L9,4 L-4,5 L-6,7 L-22,6 L-22,5 L-9,4 Z " fill="#BBD1C0" transform="translate(289,185)"/>
<path d="M0,0 L9,0 L5,2 L-11,4 L-24,4 L-27,1 Z " fill="#344E34" transform="translate(220,143)"/>
<path d="M0,0 L7,1 L16,2 L21,1 L29,1 L29,2 L22,3 L22,5 L5,5 L1,3 Z " fill="#333041" transform="translate(289,266)"/>
<path d="M0,0 L5,3 L8,8 L13,13 L8,15 L1,8 L1,6 L-2,4 L-2,2 L0,2 Z " fill="#92BD80" transform="translate(236,175)"/>
<path d="M0,0 L8,0 L8,3 L2,5 L-2,8 L-7,10 L-18,10 L-18,9 L-5,8 L-5,5 L-9,4 Z " fill="#363F47" transform="translate(287,180)"/>
<path d="M0,0 L25,0 L32,2 L32,5 L27,5 L27,3 L2,2 Z " fill="#2A4827" transform="translate(156,185)"/>
<path d="M0,0 L4,1 L-1,3 L1,8 L-6,7 L-16,4 L-16,2 Z " fill="#7BA56F" transform="translate(193,148)"/>
<path d="M0,0 L4,2 L3,13 L2,17 L-1,19 L-4,18 L-1,10 Z " fill="#373242" transform="translate(177,247)"/>
<path d="M0,0 L13,0 L27,1 L28,3 L-1,3 Z " fill="#395D34" transform="translate(249,203)"/>
<path d="M0,0 L5,0 L4,4 L-6,7 L-18,8 L-15,7 L-15,5 L-6,2 L-2,3 Z " fill="#343243" transform="translate(221,260)"/>
<path d="M0,0 L1,0 L2,8 L5,0 L6,0 L6,6 L1,13 L-4,15 L-4,12 L-6,11 L-1,6 Z " fill="#44415A" transform="translate(247,264)"/>
<path d="M0,0 L1,0 L1,9 L-1,20 L-4,20 L-4,9 L-2,3 Z " fill="#313443" transform="translate(69,272)"/>
<path d="M0,0 L4,1 L15,8 L16,5 L16,9 L12,12 L2,5 Z " fill="#37513C" transform="translate(228,205)"/>
<path d="M0,0 L18,0 L23,5 L20,5 L19,8 L18,7 L1,6 L1,5 L16,4 L16,2 L0,1 Z " fill="#4D5453" transform="translate(280,207)"/>
<path d="M0,0 L1,0 L1,12 L6,11 L7,20 L3,21 L0,14 L-1,11 L-5,10 L0,9 Z " fill="#564750" transform="translate(306,239)"/>
<path d="M0,0 L8,0 L20,3 L21,6 L14,6 L6,3 L0,2 Z " fill="#38513B" transform="translate(233,141)"/>
<path d="M0,0 L1,0 L1,8 L0,11 L2,11 L3,5 L4,9 L2,13 L6,15 L8,19 L2,18 L-4,15 L-4,12 L-2,12 Z " fill="#4E5166" transform="translate(181,250)"/>
<path d="M0,0 L7,1 L11,3 L9,5 L13,7 L12,10 L12,8 L1,6 L-1,4 Z " fill="#50434E" transform="translate(112,290)"/>
<path d="M0,0 L10,0 L7,4 L-3,7 L-6,7 L-4,3 L0,2 Z " fill="#353346" transform="translate(296,150)"/>
<path d="M0,0 L3,2 L6,4 L30,5 L30,6 L5,6 L-5,4 L-5,1 Z " fill="#57566A" transform="translate(288,266)"/>
<path d="M0,0 L1,4 L3,5 L-3,12 L-6,9 L-10,11 L-4,4 Z M-5,7 Z " fill="#433F5B" transform="translate(110,328)"/>
<path d="M0,0 L3,1 L3,15 L-1,15 L-1,3 Z " fill="#353141" transform="translate(308,236)"/>
<path d="M0,0 L1,0 L1,11 L-28,11 L-28,10 L-5,9 L-8,7 L0,7 Z " fill="#7D9F75" transform="translate(300,187)"/>
<path d="M0,0 L6,2 L18,10 L19,13 L14,11 L0,3 L-2,1 Z " fill="#7EA577" transform="translate(227,188)"/>
<path d="M0,0 L9,0 L7,2 L2,3 L2,5 L-7,7 L-7,2 Z " fill="#F6E4E8" transform="translate(297,156)"/>
<path d="M0,0 L7,6 L19,18 L19,20 L17,20 L17,18 L12,16 L9,12 L9,10 L5,8 L5,6 L2,6 L0,3 Z " fill="#C4BED0" transform="translate(351,98)"/>
<path d="M0,0 L7,4 L15,10 L15,13 L10,11 L0,4 Z " fill="#82A77B" transform="translate(228,200)"/>
<path d="M0,0 L1,3 L2,11 L3,14 L1,14 L1,16 L3,16 L2,19 L-1,15 L-1,13 L-3,13 L-2,1 Z " fill="#2E363C" transform="translate(304,189)"/>
<path d="M0,0 L3,0 L3,2 L12,3 L15,5 L1,5 L1,4 L-9,3 L-9,1 Z " fill="#2A4A2A" transform="translate(164,155)"/>
<path d="M0,0 L4,0 L4,2 L2,3 L7,4 L7,5 L1,6 L-7,6 L-7,1 Z " fill="#554350" transform="translate(290,252)"/>
<path d="M0,0 L3,1 L10,15 L10,21 L8,20 L5,13 L2,6 Z " fill="#CFC6D5" transform="translate(388,145)"/>
<path d="M0,0 L1,2 L7,2 L5,6 L2,8 L-4,7 L-3,3 Z " fill="#625D6C" transform="translate(72,366)"/>
<path d="M0,0 L3,0 L3,6 L-4,8 L-3,2 L-9,4 L-13,3 Z " fill="#F1C8C7" transform="translate(303,242)"/>
<path d="M0,0 L24,0 L23,3 L13,3 L0,2 Z " fill="#64895B" transform="translate(249,201)"/>
<path d="M0,0 L6,0 L8,2 L7,6 L11,5 L12,9 L6,7 L-2,3 L-2,1 Z " fill="#3D3C4D" transform="translate(136,299)"/>
<path d="M0,0 L9,1 L13,3 L9,6 L4,9 L5,4 L0,3 Z " fill="#3B3143" transform="translate(120,293)"/>
<path d="M0,0 L11,0 L14,2 L14,4 L8,5 L0,3 Z " fill="#463B47" transform="translate(128,255)"/>
<path d="M0,0 L4,1 L4,3 L10,4 L9,7 L9,5 L0,7 L-3,7 L-3,4 L-8,5 L-5,2 Z " fill="#4C4C60" transform="translate(67,252)"/>
<path d="M0,0 L6,0 L6,5 L4,8 L-1,8 L-2,5 Z " fill="#D3BCB6" transform="translate(306,221)"/>
<path d="M0,0 L4,1 L18,9 L22,11 L22,13 L19,14 L3,3 Z " fill="#3A6234" transform="translate(223,196)"/>
<path d="M0,0 L4,1 L1,4 L-4,4 L-3,10 L1,11 L2,14 L-2,15 L-6,10 L-5,3 Z " fill="#D3C1C6" transform="translate(265,168)"/>
<path d="M0,0 L6,1 L6,7 L-8,6 L-8,5 L-2,5 L-2,3 L1,3 Z " fill="#5D5866" transform="translate(440,280)"/>
<path d="M0,0 L15,0 L24,1 L20,3 L6,3 L0,1 Z " fill="#2A4926" transform="translate(263,198)"/>
<path d="M0,0 L4,2 L12,13 L13,19 L11,18 L7,11 L3,6 L0,2 Z " fill="#C5BFCE" transform="translate(373,123)"/>
<path d="M0,0 L6,2 L20,9 L18,12 L0,2 Z " fill="#416933" transform="translate(215,185)"/>
<path d="M0,0 L4,1 L-1,7 L-2,10 L-10,9 L-10,8 L-5,8 L-4,3 L-7,2 L-1,2 Z " fill="#DEC1C0" transform="translate(305,172)"/>
<path d="M0,0 L5,2 L9,4 L16,4 L15,6 L7,6 L8,9 L5,9 L5,7 L-1,4 Z " fill="#495D50" transform="translate(268,151)"/>
<path d="M0,0 L7,0 L10,2 L0,4 L-8,4 L-9,2 Z " fill="#8AB27F" transform="translate(209,146)"/>
<path d="M0,0 L5,1 L14,0 L14,4 L-3,4 L-3,2 Z " fill="#35344B" transform="translate(352,258)"/>
<path d="M0,0 L7,0 L14,3 L14,6 L7,5 L-1,2 Z " fill="#EFE1E5" transform="translate(136,233)"/>
<path d="M0,0 L7,0 L12,3 L15,2 L17,3 L17,6 L13,7 L13,5 L8,5 L8,3 L6,4 L-1,4 L3,2 Z " fill="#2F313F" transform="translate(289,181)"/>
<path d="M0,0 L8,1 L13,2 L11,4 L13,6 L7,5 L2,4 L3,6 L-4,5 L-1,2 Z " fill="#476C47" transform="translate(205,173)"/>
<path d="M0,0 L3,0 L4,2 L11,4 L12,6 L0,6 L0,4 L-2,3 Z " fill="#2A482E" transform="translate(169,149)"/>
<path d="M0,0 L8,0 L8,1 L14,2 L14,3 L7,3 L7,5 L2,4 L2,2 L-4,3 L-10,2 L-10,1 Z " fill="#405746" transform="translate(170,147)"/>
<path d="M0,0 L4,1 L1,3 L1,6 L-6,8 L-6,6 L-9,5 L-6,2 Z " fill="#4C414E" transform="translate(280,229)"/>
<path d="M0,0 L2,2 L4,7 L7,12 L5,12 L3,16 L1,13 L1,8 L-1,8 L-1,6 L1,6 L-1,2 Z " fill="#42414C" transform="translate(306,197)"/>
<path d="M0,0 L2,1 L-2,4 L-4,7 L-10,8 L-15,6 L-13,4 Z " fill="#574657" transform="translate(197,299)"/>
<path d="M0,0 L20,2 L27,4 L27,6 L18,5 L13,3 L1,2 L0,6 Z " fill="#BFA5A8" transform="translate(126,253)"/>
<path d="M0,0 L9,1 L13,3 L12,6 L6,5 L6,4 L-2,3 Z " fill="#303143" transform="translate(135,227)"/>
<path d="M0,0 L3,1 L0,4 L-4,5 L-14,5 L-12,2 Z " fill="#323043" transform="translate(282,184)"/>
<path d="M0,0 L17,0 L17,1 L11,3 L9,4 L1,4 Z " fill="#352E45" transform="translate(161,307)"/>
<path d="M0,0 L12,0 L21,3 L21,4 L13,4 L0,1 Z " fill="#7DA276" transform="translate(168,161)"/>
<path d="M0,0 L10,2 L8,5 L9,7 L-5,4 L-5,3 L0,3 Z " fill="#455B49" transform="translate(188,187)"/>
<path d="M0,0 L3,4 L7,6 L2,10 L-5,5 Z " fill="#BADEB0" transform="translate(231,163)"/>
<path d="M0,0 L3,1 L3,13 L-1,12 L-1,6 L-1,3 Z " fill="#2F3146" transform="translate(122,303)"/>
<path d="M0,0 L4,1 L-4,8 L-7,10 L-13,9 L-13,8 L-6,6 L-1,1 Z " fill="#D9B8BC" transform="translate(114,305)"/>
<path d="M0,0 L0,3 L-5,8 L-5,12 L-14,15 L-8,8 Z " fill="#72707D" transform="translate(28,282)"/>
<path d="M0,0 L5,1 L11,3 L11,5 L-1,4 L-6,2 L-6,1 L0,1 Z " fill="#2D2B3B" transform="translate(411,277)"/>
<path d="M0,0 L5,0 L10,2 L9,6 L-2,4 Z " fill="#32364B" transform="translate(395,273)"/>
<path d="M0,0 L2,1 L-1,4 L-9,6 L-15,6 L-17,4 L-6,2 L0,2 Z " fill="#D0C7D6" transform="translate(282,402)"/>
<path d="M0,0 L1,3 L3,5 L-2,8 L-4,8 L-5,6 L-9,4 Z " fill="#4B3F4D" transform="translate(228,276)"/>
<path d="M0,0 L7,4 L8,8 L4,7 L-4,2 Z " fill="#84AD75" transform="translate(237,199)"/>
<path d="M0,0 L4,1 L3,7 L6,8 L3,13 L1,13 L0,10 L1,4 L-1,3 Z " fill="#373B4A" transform="translate(383,183)"/>
<path d="M0,0 L5,0 L5,2 L15,2 L11,5 L3,4 L3,2 L0,3 L-8,3 L-8,2 L-1,1 Z " fill="#58725A" transform="translate(164,153)"/>
<path d="M0,0 L7,0 L4,2 L9,2 L12,5 L-3,5 L1,4 Z " fill="#48424E" transform="translate(192,265)"/>
<path d="M0,0 L2,0 L1,12 L-3,10 L-3,3 Z " fill="#323040" transform="translate(265,241)"/>
<path d="M0,0 L8,0 L5,4 L-4,5 L-3,1 Z " fill="#353141" transform="translate(284,229)"/>
<path d="M0,0 L5,1 L4,6 L1,9 L-2,7 Z " fill="#383750" transform="translate(120,315)"/>
<path d="M0,0 L11,0 L9,4 L0,4 Z " fill="#6B8F5F" transform="translate(247,211)"/>
<path d="M0,0 L1,3 L-5,13 L-8,12 L-7,8 Z " fill="#34374A" transform="translate(381,198)"/>
<path d="M0,0 L5,4 L0,5 L0,7 L15,7 L15,8 L-1,8 L-3,4 L-2,2 L0,2 Z " fill="#B4D3AF" transform="translate(258,185)"/>
<path d="M0,0 L4,1 L-1,4 L-2,6 L0,7 L-6,8 L-8,6 L-8,3 Z " fill="#3C3B4A" transform="translate(292,151)"/>
<path d="M0,0 L10,0 L8,2 L10,4 L0,4 L-2,2 Z " fill="#383043" transform="translate(194,288)"/>
<path d="M0,0 L3,2 L4,7 L6,10 L0,14 L-2,13 L0,8 Z " fill="#CCB4BD" transform="translate(235,266)"/>
<path d="M0,0 L2,1 L-2,2 L1,6 L-3,8 L-9,7 L-8,5 L-6,5 L-6,3 Z " fill="#493D4B" transform="translate(210,284)"/>
<path d="M0,0 L16,0 L16,1 L7,3 L7,4 L0,4 Z " fill="#433341" transform="translate(157,287)"/>
<path d="M0,0 L1,4 L-2,8 L-4,8 L-5,12 L-10,15 L-8,11 L-2,2 Z " fill="#D6C4CA" transform="translate(82,259)"/>
<path d="M0,0 L4,1 L3,3 L5,5 L-4,7 L-3,3 L-5,2 Z " fill="#424154" transform="translate(117,227)"/>
<path d="M0,0 L8,0 L16,2 L16,4 L3,3 Z " fill="#84A97A" transform="translate(173,156)"/>
<path d="M0,0 L8,3 L8,5 L10,6 L6,7 L-2,3 Z " fill="#86AD79" transform="translate(199,155)"/>
<path d="M0,0 L7,0 L7,3 L2,4 L-2,6 L-3,2 Z " fill="#DECAD2" transform="translate(237,260)"/>
<path d="M0,0 L2,3 L5,3 L0,11 L-1,11 L-2,6 L-4,7 L-2,2 Z " fill="#494556" transform="translate(75,259)"/>
<path d="M0,0 L3,1 L-1,4 L-10,3 L-14,1 Z " fill="#D2B6BC" transform="translate(172,259)"/>
<path d="M0,0 L1,0 L1,8 L-1,17 L-3,15 L-2,4 Z " fill="#DCDCE6" transform="translate(453,247)"/>
<path d="M0,0 L3,1 L5,4 L5,14 L1,17 L2,12 L2,5 Z " fill="#D9C8CE" transform="translate(315,211)"/>
<path d="M0,0 L8,0 L8,3 L-5,5 L-9,4 Z " fill="#584C59" transform="translate(287,180)"/>
<path d="M0,0 L2,0 L3,2 L3,8 L0,7 L-1,6 L-4,7 L-8,3 L-1,4 Z " fill="#48404E" transform="translate(304,178)"/>
<path d="M0,0 L4,2 L5,5 L3,5 L4,7 L7,9 L5,10 L-2,4 Z " fill="#88B075" transform="translate(231,172)"/>
<path d="M0,0 L2,1 L-3,13 L-6,13 L-5,8 Z " fill="#C9C3D7" transform="translate(74,148)"/>
<path d="M0,0 L2,1 L0,5 L-2,5 L-2,7 L-7,10 L-10,13 L-12,12 Z " fill="#807E8B" transform="translate(43,267)"/>
<path d="M0,0 L20,0 L17,2 L11,3 L0,1 Z " fill="#695964" transform="translate(293,266)"/>
<path d="M0,0 L1,0 L2,7 L4,6 L5,1 L6,1 L7,11 L4,11 L2,13 L0,9 Z " fill="#5A5467" transform="translate(261,244)"/>
<path d="M0,0 L4,1 L2,4 L7,4 L7,5 L1,5 L-2,5 L-4,5 L-5,8 L-7,8 L-5,4 Z " fill="#49485B" transform="translate(218,241)"/>
<path d="M0,0 L8,1 L11,4 L1,4 L-3,1 Z " fill="#344F35" transform="translate(196,190)"/>
<path d="M0,0 L6,1 L13,4 L13,6 L6,5 L1,2 Z " fill="#2B4E26" transform="translate(206,176)"/>
<path d="M0,0 L10,3 L14,5 L14,7 L9,6 L-2,2 Z " fill="#3C6134" transform="translate(194,163)"/>
<path d="M0,0 L3,0 L3,3 L9,5 L11,7 L11,10 L8,9 L6,6 L-1,3 Z " fill="#A1C993" transform="translate(200,152)"/>
<path d="M0,0 L8,2 L11,4 L9,4 L9,6 L2,5 L0,3 Z " fill="#365935" transform="translate(179,152)"/>
<path d="M0,0 L2,0 L1,7 L-1,9 L-2,7 L-6,8 L-7,6 Z " fill="#9592B2" transform="translate(119,311)"/>
<path d="M0,0 L2,0 L2,6 L-2,8 L-5,7 L-3,3 Z " fill="#322F40" transform="translate(27,285)"/>
<path d="M0,0 L2,1 L-2,6 L2,6 L2,8 L-2,9 L-4,15 L-5,15 L-5,6 Z " fill="#E0C8CB" transform="translate(272,238)"/>
<path d="M0,0 L2,0 L5,9 L5,12 L2,12 L0,5 Z " fill="#B9B0C6" transform="translate(15,314)"/>
<path d="M0,0 L2,0 L6,4 L5,9 L3,13 L2,13 L1,4 Z " fill="#382F42" transform="translate(246,260)"/>
<path d="M0,0 L6,4 L5,6 L3,6 L4,9 L-1,7 L-1,4 Z " fill="#424660" transform="translate(378,264)"/>
<path d="M0,0 Z M-1,1 L1,2 L1,4 L-2,4 L-5,7 L-11,8 L-6,3 Z M-12,8 Z " fill="#313042" transform="translate(59,258)"/>
<path d="M0,0 L5,1 L9,6 L6,6 L4,5 L2,7 L0,5 Z " fill="#483D4F" transform="translate(264,254)"/>
<path d="M0,0 L3,0 L4,7 L1,8 L0,11 L-1,9 Z " fill="#3A364B" transform="translate(185,250)"/>
<path d="M0,0 L6,2 L6,4 L4,5 L-4,5 L-3,2 Z " fill="#2F3042" transform="translate(298,227)"/>
<path d="M0,0 L13,0 L12,2 L-5,3 L-1,1 Z " fill="#C8C3D0" transform="translate(207,54)"/>
<path d="M0,0 L4,0 L5,3 L-2,5 L-8,5 L-5,2 Z " fill="#D5CBD3" transform="translate(115,233)"/>
<path d="M0,0 L2,0 L2,3 L12,3 L12,4 L-1,5 L-3,4 L-2,1 Z " fill="#2D4630" transform="translate(244,213)"/>
<path d="M0,0 L3,0 L2,2 Z M-2,2 L2,2 L3,5 L-3,6 L-10,5 L-10,4 Z " fill="#494A5C" transform="translate(432,181)"/>
<path d="M0,0 L2,0 L1,5 L-4,17 L-5,13 Z " fill="#C6BECC" transform="translate(67,162)"/>
<path d="M0,0 L1,0 L1,5 L-5,13 L-6,10 Z " fill="#C0BAC8" transform="translate(83,132)"/>
<path d="M0,0 L3,1 L-4,7 L-10,6 L-6,3 Z " fill="#4B3E4E" transform="translate(217,290)"/>
<path d="M0,0 L9,2 L15,4 L15,5 L9,6 L4,4 L2,4 L2,1 Z " fill="#C0C7CF" transform="translate(192,193)"/>
<path d="M0,0 L8,1 L12,2 L12,4 L4,4 L1,3 Z " fill="#CBC3D1" transform="translate(192,405)"/>
<path d="M0,0 L3,0 L3,2 L6,3 L-3,7 L-6,6 L-3,4 L-1,4 Z " fill="#DFBDBC" transform="translate(213,278)"/>
<path d="M0,0 L1,0 L1,9 L-2,12 L-4,15 L-4,12 L-6,11 L-1,6 Z " fill="#574656" transform="translate(247,264)"/>
<path d="M0,0 L8,1 L12,3 L13,7 L8,5 L0,1 Z " fill="#4A5C4F" transform="translate(217,202)"/>
<path d="M0,0 L5,0 L5,3 L7,4 L7,6 L2,5 L0,4 Z " fill="#3A3846" transform="translate(360,171)"/>
<path d="M0,0 L3,0 L3,2 L-5,6 L-9,6 L-9,4 Z " fill="#D0C1D3" transform="translate(313,390)"/>
<path d="M0,0 L1,0 L1,6 L-2,9 L-6,7 L-4,6 L-3,2 L0,2 Z " fill="#D4BABB" transform="translate(230,268)"/>
<path d="M0,0 L6,2 L8,6 L2,5 L-4,2 Z " fill="#4B4653" transform="translate(181,263)"/>
<path d="M0,0 L2,0 L2,2 L-1,3 L1,4 L-1,6 L-8,5 L-12,4 Z " fill="#5C4B5A" transform="translate(342,259)"/>
<path d="M0,0 L6,0 L6,2 L1,4 L-6,3 L-6,1 Z " fill="#D9B7BA" transform="translate(297,256)"/>
<path d="M0,0 L6,1 L10,3 L9,6 L0,3 Z " fill="#EFDFE2" transform="translate(151,237)"/>
<path d="M0,0 L1,0 L1,9 L0,6 L-6,6 L-7,9 L-7,3 L-1,5 L-1,3 L-3,2 L0,2 Z " fill="#494E4B" transform="translate(312,215)"/>
<path d="M0,0 L4,2 L2,2 L2,5 L-8,2 L-8,1 Z " fill="#415947" transform="translate(207,193)"/>
<path d="M0,0 L6,3 L6,5 L0,4 L-7,2 L-7,1 Z " fill="#B6DCA8" transform="translate(264,157)"/>
<path d="M0,0 L12,0 L10,3 L0,2 Z " fill="#86AE79" transform="translate(177,150)"/>
<path d="M0,0 L6,0 L7,3 L-4,4 Z " fill="#C7CBD3" transform="translate(177,143)"/>
<path d="M0,0 L11,1 L8,3 L-3,3 Z " fill="#484761" transform="translate(173,308)"/>
<path d="M0,0 L3,1 L-7,7 L-11,5 L-2,1 Z " fill="#B1A0B2" transform="translate(231,280)"/>
<path d="M0,0 L1,0 L1,7 L0,9 L-3,8 L-3,2 Z " fill="#C6CCDB" transform="translate(450,262)"/>
<path d="M0,0 L2,1 L2,10 L-2,14 L-2,10 L0,10 Z " fill="#C5B7C0" transform="translate(201,251)"/>
<path d="M0,0 L2,1 L1,5 L3,6 L-3,9 L-2,5 L-1,4 L-4,3 Z " fill="#484C5A" transform="translate(104,232)"/>
<path d="M0,0 L12,0 L8,2 L6,4 L2,3 L0,2 Z " fill="#3D3C4D" transform="translate(127,226)"/>
<path d="M0,0 L13,0 L12,2 L6,3 L-1,2 Z " fill="#6D945E" transform="translate(255,207)"/>
<path d="M0,0 L4,0 L4,3 L2,4 L1,8 L-2,8 L-1,1 Z " fill="#274A25" transform="translate(248,197)"/>
<path d="M0,0 L1,4 L2,7 L-1,10 L-3,9 L-4,5 Z M-2,4 L-1,6 Z " fill="#4B4B58" transform="translate(383,190)"/>
<path d="M0,0 L2,0 L0,4 L-16,3 L-16,2 L-3,1 Z " fill="#A1B6A4" transform="translate(283,188)"/>
<path d="M0,0 L9,1 L11,2 L11,5 L6,5 L6,3 L3,3 L3,1 Z " fill="#355031" transform="translate(177,185)"/>
<path d="M0,0 L4,2 L12,3 L12,5 L3,6 L0,3 Z " fill="#829190" transform="translate(154,160)"/>
<path d="M0,0 L6,0 L9,6 L0,3 L-2,1 Z " fill="#B7BDC6" transform="translate(261,145)"/>
<path d="M0,0 L4,1 L4,3 L9,3 L7,5 L-2,4 L-2,1 Z " fill="#2F2D40" transform="translate(425,279)"/>
<path d="M0,0 L4,1 L-5,4 L-13,2 L-13,1 Z " fill="#C1B0B7" transform="translate(204,269)"/>
<path d="M0,0 L2,0 L2,4 L4,4 L2,13 L0,13 Z " fill="#BABBD1" transform="translate(181,248)"/>
<path d="M0,0 L2,4 L1,9 L-3,5 L-4,8 L-3,1 Z " fill="#3F3C4F" transform="translate(311,231)"/>
<path d="M0,0 L2,0 L1,5 L-1,7 L-2,1 Z M-7,2 L-2,3 L-5,6 L-8,4 Z " fill="#35313F" transform="translate(313,228)"/>
<path d="M0,0 L6,2 L10,6 L8,8 L0,2 Z " fill="#365B35" transform="translate(234,195)"/>
<path d="M0,0 L6,0 L15,4 L11,5 L0,1 Z " fill="#30532F" transform="translate(198,170)"/>
<path d="M0,0 L12,0 L10,3 L1,3 L-1,1 Z " fill="#5F825A" transform="translate(170,166)"/>
<path d="M0,0 L3,0 L4,3 L1,5 L-4,4 L-4,2 Z " fill="#39303E" transform="translate(212,284)"/>
<path d="M0,0 L1,2 L1,7 L-2,8 L-7,8 L-1,1 Z " fill="#BDBBD2" transform="translate(251,272)"/>
<path d="M0,0 L7,1 L5,4 L3,4 L3,6 L0,6 L0,4 L-2,2 Z " fill="#434253" transform="translate(92,241)"/>
<path d="M0,0 L3,1 L3,5 L9,6 L9,8 L2,7 L0,3 Z " fill="#2C3F36" transform="translate(302,212)"/>
<path d="M0,0 L7,3 L5,4 L6,7 L-1,6 Z " fill="#83B071" transform="translate(223,191)"/>
<path d="M0,0 L2,1 L-7,10 L-9,9 L-2,1 Z " fill="#C4CBD8" transform="translate(395,186)"/>
<path d="M0,0 L7,0 L9,5 L6,6 L6,2 L2,4 Z " fill="#4B4557" transform="translate(66,301)"/>
<path d="M0,0 L5,1 L8,3 L8,5 L4,5 L4,3 L0,4 Z " fill="#3A3343" transform="translate(143,301)"/>
<path d="M0,0 L2,0 L2,10 L-1,10 Z " fill="#C7C2CD" transform="translate(56,196)"/>
<path d="M0,0 L2,0 L1,5 L-3,8 L-5,3 L-2,3 L0,4 L-1,1 Z " fill="#6F5F7A" transform="translate(84,359)"/>
<path d="M0,0 L5,0 L5,2 L9,2 L9,4 L4,5 L0,2 Z " fill="#C3BACD" transform="translate(39,355)"/>
<path d="M0,0 L4,1 L9,7 L6,8 L0,2 Z " fill="#C4BCC9" transform="translate(31,347)"/>
<path d="M0,0 L2,1 L1,5 L5,4 L6,8 L0,6 L-2,5 Z " fill="#49495B" transform="translate(142,300)"/>
<path d="M0,0 L4,0 L5,5 L-2,4 Z " fill="#343042" transform="translate(222,241)"/>
<path d="M0,0 L3,1 L1,3 L-9,3 L-9,1 Z " fill="#3E4E49" transform="translate(164,155)"/>
<path d="M0,0 L7,0 L9,1 L10,5 L3,3 Z " fill="#98C08C" transform="translate(251,150)"/>
<path d="M0,0 L8,0 L11,1 L11,3 L0,2 Z " fill="#2C462F" transform="translate(233,141)"/>
<path d="M0,0 L11,0 L10,3 L0,2 Z " fill="#CAC1D0" transform="translate(233,409)"/>
<path d="M0,0 L4,1 L4,3 L9,2 L9,6 L1,3 Z " fill="#998FB8" transform="translate(54,364)"/>
<path d="M0,0 L5,0 L7,3 L4,4 L4,2 L1,2 L1,4 L-3,4 L-3,2 Z " fill="#CFC4C9" transform="translate(194,248)"/>
<path d="M0,0 L5,1 L10,4 L10,5 L5,5 L1,3 Z " fill="#EADCE3" transform="translate(163,243)"/>
<path d="M0,0 L4,3 L4,6 L-1,6 L-2,3 Z " fill="#D8BAC0" transform="translate(306,223)"/>
<path d="M0,0 L2,1 L-1,4 L-1,7 L-2,9 L-4,9 L-3,2 Z " fill="#DEC8D2" transform="translate(264,217)"/>
<path d="M0,0 L4,0 L3,5 L-1,5 Z " fill="#373345" transform="translate(257,217)"/>
<path d="M0,0 L2,1 L2,5 L-4,6 L-2,1 Z " fill="#6A676E" transform="translate(451,184)"/>
<path d="M0,0 L7,0 L9,2 L0,4 Z " fill="#2F303F" transform="translate(425,181)"/>
<path d="M0,0 L1,0 L1,8 L-5,13 L-4,9 L-2,9 Z " fill="#D3B6BD" transform="translate(246,262)"/>
<path d="M0,0 L6,1 L3,5 L-2,3 L-2,1 Z " fill="#2F344E" transform="translate(383,269)"/>
<path d="M0,0 L6,1 L6,4 L-1,4 Z " fill="#313040" transform="translate(238,255)"/>
<path d="M0,0 L5,0 L1,4 L-4,3 L-5,1 Z " fill="#D3B7BF" transform="translate(267,232)"/>
<path d="M0,0 L2,0 L4,6 L2,10 L2,6 L0,6 L-1,2 Z " fill="#2E333D" transform="translate(311,209)"/>
<path d="M0,0 L7,4 L6,7 L1,5 Z " fill="#7AA36D" transform="translate(228,200)"/>
<path d="M0,0 L3,1 L0,4 L-5,5 L-4,1 Z " fill="#41404F" transform="translate(273,163)"/>
<path d="M0,0 L4,1 L0,5 L4,8 L-1,7 L-2,2 Z " fill="#9DC58E" transform="translate(234,160)"/>
<path d="M0,0 L8,0 L7,3 L-1,2 Z " fill="#374944" transform="translate(156,160)"/>
<path d="M0,0 Z M-3,1 L0,2 L-2,7 L-5,7 L-5,2 Z " fill="#332F3B" transform="translate(19,295)"/>
<path d="M0,0 Z M-1,2 L0,2 L0,9 L-3,13 L-2,4 Z " fill="#D2C7D9" transform="translate(402,286)"/>
<path d="M0,0 L9,0 L11,4 L0,1 Z " fill="#C9AFB3" transform="translate(123,292)"/>
<path d="M0,0 L4,1 L1,4 L-4,5 Z M-5,5 Z M-6,6 Z " fill="#342F41" transform="translate(38,274)"/>
<path d="M0,0 L6,0 L5,3 L2,3 L3,6 L0,5 L1,2 L-1,1 Z " fill="#414356" transform="translate(394,180)"/>
<path d="M0,0 L10,5 L8,6 L-2,2 Z " fill="#6A8F65" transform="translate(203,164)"/>
<path d="M0,0 L3,0 L2,5 L0,8 L-2,8 Z " fill="#CAC4D1" transform="translate(385,320)"/>
<path d="M0,0 L3,1 L2,5 L-2,8 L-2,5 L0,5 L-1,1 Z " fill="#A09ABC" transform="translate(115,317)"/>
<path d="M0,0 L3,3 L3,9 L2,5 L-3,4 Z " fill="#C8B3B9" transform="translate(174,248)"/>
<path d="M0,0 L4,0 L3,4 L-3,5 Z " fill="#D4DCEC" transform="translate(385,196)"/>
<path d="M0,0 L5,1 L5,3 L-3,3 L-5,1 Z " fill="#4C5650" transform="translate(178,187)"/>
<path d="M0,0 L5,1 L3,3 L5,5 L-1,4 L-2,1 Z " fill="#43603F" transform="translate(213,174)"/>
<path d="M0,0 L3,0 L2,7 L-1,7 Z " fill="#2E323B" transform="translate(256,172)"/>
<path d="M0,0 L9,0 L9,1 L2,3 L-6,3 L-6,2 L0,2 Z " fill="#3A5F33" transform="translate(174,169)"/>
<path d="M0,0 L2,0 L2,4 L-3,5 L-5,3 Z " fill="#D9CCD3" transform="translate(288,158)"/>
<path d="M0,0 L7,1 L7,5 L3,3 L0,2 Z " fill="#304B36" transform="translate(261,149)"/>
<path d="M0,0 L4,1 L3,3 L8,3 L8,4 L0,4 Z " fill="#525D5C" transform="translate(156,149)"/>
<path d="M0,0 L2,0 L1,3 L-2,5 L-8,4 L-8,3 L-1,1 Z " fill="#E1BEC3" transform="translate(109,310)"/>
<path d="M0,0 L5,1 L7,2 L8,6 L3,4 Z " fill="#D4C2C8" transform="translate(75,305)"/>
<path d="M0,0 L4,1 L4,3 L2,4 L-4,4 L-1,3 Z " fill="#373243" transform="translate(220,281)"/>
<path d="M0,0 L7,0 L12,1 L12,2 L4,3 L0,1 Z " fill="#D8C5CB" transform="translate(134,261)"/>
<path d="M0,0 L5,0 L7,3 L3,4 L0,3 Z " fill="#372F3C" transform="translate(128,255)"/>
<path d="M0,0 L1,0 L2,8 L-6,7 L-6,6 L0,6 Z " fill="#A8939C" transform="translate(368,251)"/>
<path d="M0,0 L1,0 L1,5 L-4,6 L-2,2 Z " fill="#D8CBD0" transform="translate(87,253)"/>
<path d="M0,0 L4,0 L3,4 L-3,4 L-2,2 L0,2 Z " fill="#362D3D" transform="translate(294,252)"/>
<path d="M0,0 L5,3 L5,6 L1,5 L-1,3 Z " fill="#7CA174" transform="translate(240,201)"/>
<path d="M0,0 L5,2 L5,5 L7,6 L2,5 L0,3 Z " fill="#85AE73" transform="translate(223,197)"/>
<path d="M0,0 L7,0 L10,2 L1,3 Z " fill="#294C29" transform="translate(169,163)"/>
<path d="M0,0 L9,0 L9,1 L2,2 L-2,3 L-5,1 Z " fill="#7A9F6F" transform="translate(225,144)"/>
<path d="M0,0 L5,0 L2,1 L2,4 L-3,4 L-2,1 Z " fill="#CFC8D6" transform="translate(137,80)"/>
<path d="M0,0 L7,1 L7,4 L2,3 L0,2 Z M-1,2 Z " fill="#C4C1CA" transform="translate(262,55)"/>
<path d="M0,0 L9,4 L9,5 L4,5 L0,2 Z " fill="#CBC4D6" transform="translate(136,382)"/>
<path d="M0,0 L1,4 L-2,7 L-5,6 Z " fill="#C5B0CE" transform="translate(370,344)"/>
<path d="M0,0 L3,1 L-5,6 L-5,3 Z " fill="#D7BFC4" transform="translate(220,286)"/>
<path d="M0,0 L5,0 L1,1 L-1,5 L-5,2 Z " fill="#5F5B66" transform="translate(220,259)"/>
<path d="M0,0 L2,0 L1,4 L0,5 L-5,5 Z " fill="#434457" transform="translate(98,236)"/>
<path d="M0,0 L2,0 L4,7 L2,7 L1,10 Z " fill="#333645" transform="translate(300,212)"/>
<path d="M0,0 L1,2 L-2,11 L-3,11 L-4,5 L-3,3 L-1,3 Z " fill="#53586A" transform="translate(376,210)"/>
<path d="M0,0 L11,0 L9,3 L6,3 L6,1 L0,1 Z " fill="#608450" transform="translate(247,211)"/>
<path d="M0,0 L4,1 L-2,4 L-8,4 L-6,2 Z " fill="#535267" transform="translate(292,151)"/>
<path d="M0,0 L6,0 L7,2 L-1,3 Z " fill="#D0CBD8" transform="translate(186,58)"/>
<path d="M0,0 L4,1 L7,4 L5,5 L0,2 Z " fill="#D1C3D6" transform="translate(152,391)"/>
<path d="M0,0 L3,0 L3,2 L-1,5 L-4,4 Z " fill="#B2ACCB" transform="translate(350,365)"/>
<path d="M0,0 L2,2 L-4,7 L-4,4 Z " fill="#3B3856" transform="translate(116,311)"/>
<path d="M0,0 L3,1 L3,7 L1,9 Z " fill="#AEAEB8" transform="translate(445,277)"/>
<path d="M0,0 L7,0 L8,3 L1,2 Z " fill="#31394D" transform="translate(415,277)"/>
<path d="M0,0 L4,0 L3,4 L-2,3 L0,2 Z " fill="#FACAC8" transform="translate(223,271)"/>
<path d="M0,0 L2,1 L0,7 L-2,9 L-2,4 Z " fill="#B2ACC8" transform="translate(68,265)"/>
<path d="M0,0 L4,1 L3,6 L0,4 Z " fill="#31334B" transform="translate(374,263)"/>
<path d="M0,0 L1,3 L4,5 L-3,6 L-1,1 Z " fill="#C2B2C0" transform="translate(211,257)"/>
<path d="M0,0 L4,1 L3,4 L-1,3 L-2,1 Z " fill="#362F42" transform="translate(151,260)"/>
<path d="M0,0 L3,1 L3,4 L-3,4 L-3,2 Z " fill="#3B2D3B" transform="translate(287,253)"/>
<path d="M0,0 L1,2 L0,4 L3,4 L2,8 L-3,3 L-1,3 Z " fill="#4F495A" transform="translate(210,249)"/>
<path d="M0,0 L3,0 L3,5 L0,5 L-1,1 Z " fill="#373645" transform="translate(170,241)"/>
<path d="M0,0 L2,2 L1,8 L-1,9 L-1,2 Z " fill="#2F2F43" transform="translate(371,213)"/>
<path d="M0,0 L5,1 L4,3 L1,2 L0,9 L-1,9 L-1,1 Z " fill="#465151" transform="translate(255,170)"/>
<path d="M0,0 L5,2 L6,5 L4,5 L4,3 L-1,4 Z " fill="#F0E3E5" transform="translate(345,167)"/>
<path d="M0,0 L2,0 L2,3 L-3,5 L-6,5 L-6,3 L-3,2 L-1,3 Z " fill="#F8E7E8" transform="translate(267,169)"/>
<path d="M0,0 L1,4 L-5,8 L-4,4 Z " fill="#C2AFCB" transform="translate(107,103)"/>
</svg>
